<?xml version="1.0" encoding="utf-8"?>
<!-- Generator: Adobe Illustrator 24.1.2, SVG Export Plug-In . SVG Version: 6.00 Build 0)  -->
<svg version="1.1" id="Livello_1" xmlns="http://www.w3.org/2000/svg" xmlns:xlink="http://www.w3.org/1999/xlink" x="0px" y="0px"
	 viewBox="0 0 3061.4 3061.4" style="enable-background:new 0 0 3061.4 3061.4;" xml:space="preserve">
<style type="text/css">
	.st0{fill:none;}
	.st1{fill:#666666;}
</style>
<rect class="st0" width="3061.4" height="3061.4"/>
<path class="st1" d="M2413.2,2669.4H683.4V389.6h1211.8L2413,907.3L2413.2,2669.4L2413.2,2669.4z M705.6,2647.7H2392V912.6
	l-506.1-500.4H705.6V2647.7z"/>
<path class="st1" d="M2402.1,917l-512.2,1.4V405.6l20.4,0.6l491.8,494.5V917z M1913.1,892.6l446.7-2.5l-446.3-446.3L1913.1,892.6z"
	/>
<g>
	<path class="st1" d="M1435.5,1960.8c-3.6-0.8-7.3-1.5-10.8-2.5c-25.7-7.3-41.8-34.8-34-63.6c27-99.2,53.4-198.5,80-297.7
		c42.6-158.8,85.1-317.5,127.7-476.3c6-22.4,22.4-37.5,43.1-39.8c36.9-4.1,64.4,28.2,54.7,64.5c-17.9,67.3-36,134.6-54.1,201.8
		c-45.9,171.1-91.7,342.2-137.6,513.3c-5.4,20.1-10.8,40.2-16.3,60.3c-6.1,22.1-20.3,35.4-43.1,39.1c-0.6,0.1-1.1,0.5-1.7,0.8
		C1440.8,1960.8,1438.2,1960.8,1435.5,1960.8z"/>
	<path class="st1" d="M1042,1529.3c0.4-1.7,0.9-3.4,1.3-5.1c2.3-10.6,7.6-19.4,15.2-27c66.4-66.3,132.7-132.6,199.1-198.8
		c26.1-26.1,67.3-19.4,82.8,13.2c8.3,17.5,5,39.9-8,54.3c-1.8,1.9-3.6,3.8-5.5,5.7c-52.9,52.8-105.8,105.7-158.7,158.5
		c-1.3,1.3-2.8,2.2-5.1,5.5c1.7,1,3.7,1.7,5.1,3c53.5,53.4,107,106.7,160.4,160.2c20.6,20.6,21.8,50.5,3,71.3
		c-18,19.9-50.2,21.7-70.2,3.9c-1.8-1.6-3.6-3.4-5.3-5.1c-65.3-65.2-130.6-130.5-196-195.7c-9.3-9.2-15.9-19.5-17.5-32.7
		c-0.1-0.4-0.5-0.8-0.7-1.2C1042,1535.8,1042,1532.6,1042,1529.3z"/>
	<path class="st1" d="M2052,1539.1c-0.5,1.8-1,3.7-1.4,5.6c-2.2,9.9-6.9,18.4-14,25.5c-66.9,66.9-133.9,133.8-200.9,200.6
		c-14.3,14.3-31.7,19.1-51.1,13.1c-19.2-5.9-31-19.4-34.7-39.1c-2.9-15.5,1.1-29.6,11.4-41.7c1.7-2,3.6-3.8,5.4-5.7
		c53-53,106-105.9,159-158.8c1.3-1.3,2.8-2.2,5.1-5.5c-1.7-1-3.7-1.7-5.1-3c-53.5-53.4-107-106.8-160.4-160.2
		c-20.6-20.6-21.8-50.5-3-71.3c18-19.9,50.1-21.7,70.2-3.8c1.8,1.6,3.6,3.4,5.4,5.1c65.4,65.4,130.9,130.8,196.4,196.1
		c9.1,9.1,15.5,19.4,17.1,32.4c0.1,0.4,0.5,0.8,0.7,1.2C2052,1532.6,2052,1535.8,2052,1539.1z"/>
</g>
</svg>
