<?xml version="1.0" encoding="utf-8"?>
<!-- Generator: Adobe Illustrator 24.1.2, SVG Export Plug-In . SVG Version: 6.00 Build 0)  -->
<svg version="1.1" id="Livello_1" xmlns="http://www.w3.org/2000/svg" xmlns:xlink="http://www.w3.org/1999/xlink" x="0px" y="0px"
	 viewBox="0 0 3061.4 3061.4" style="enable-background:new 0 0 3061.4 3061.4;" xml:space="preserve">
<style type="text/css">
	.st0{fill:none;}
	.st1{fill:#666666;}
</style>
<rect class="st0" width="3061.4" height="3061.4"/>
<path class="st1" d="M2413.2,2669.4H683.4V389.6h1211.8L2413,907.3L2413.2,2669.4L2413.2,2669.4z M705.6,2647.7H2392V912.6
	l-506.1-500.4H705.6V2647.7z"/>
<path class="st1" d="M2402.1,917l-512.2,1.4V405.6l20.4,0.6l491.8,494.5V917z M1913.1,892.6l446.7-2.5l-446.3-446.3L1913.1,892.6z"
	/>
<g>
	<path class="st1" d="M1412.2,1792.4c0,25.4-8.3,44.9-25,58.5c-16.7,13.5-40.4,20.3-71.1,20.3h-25.3v91.1h-39.8v-243.5h70.1
		c30.4,0,53.2,6.2,68.4,18.7C1404.6,1749.9,1412.2,1768.2,1412.2,1792.4z M1290.7,1837.7h21.2c20.4,0,35.4-3.6,45-10.7
		c9.5-7.1,14.3-18.2,14.3-33.3c0-14-4.3-24.4-12.8-31.3c-8.6-6.9-21.9-10.3-40-10.3h-27.7V1837.7z"/>
	<path class="st1" d="M1658.9,1838.2c0,40.2-11.2,70.9-33.5,92.2c-22.3,21.3-54.5,31.9-96.4,31.9h-68.1v-243.5h75.3
		c38.8,0,68.9,10.4,90.4,31.3C1648.1,1771,1658.9,1800.3,1658.9,1838.2z M1616.9,1839.5c0-58.3-27.3-87.5-81.8-87.5h-34.5v176.7
		h28.3C1587.6,1928.8,1616.9,1899.1,1616.9,1839.5z"/>
	<path class="st1" d="M1750.6,1962.3h-39.5v-243.5h137.4v33.6h-97.9v76.1h91.8v33.8h-91.8V1962.3z"/>
	<path class="st1" d="M1724.3,1434.6c27.9,4.9,56.5,7.5,83.5,15.4c31,9.1,43.1,30.7,38.1,57.5c-5.4,28.9-29.6,55.1-56.5,49.5
		c-31.4-6.5-66.4-17.6-89.2-38.4c-34.3-31.3-68.1-36.1-109.6-26.2c-39.1,9.4-79.1,15.1-117.9,25.4c-12.4,3.3-24.4,14.3-32.9,24.8
		c-25.9,31.9-47.3,67.8-75.4,97.4c-31.4,33.1-66.3,32.8-90.1,6.1c-24.7-27.7-22.7-67.3,12.3-92.6c33.7-24.3,73.8-39.5,110.3-60.1
		c12.6-7.2,27.5-16.6,33.1-28.8c24.1-52.5,46.2-106.1,66.6-160.2c4.4-11.8,1.1-28-2.6-41c-10.3-36.5-26.8-71.8-32.4-108.9
		c-2.6-17.4,9.1-43.8,23.2-55.6c37.4-31.3,86.6-7.9,87.8,41.8c0.8,35.8-5.2,72.4-13.1,107.5c-5,22.3-3.3,39.6,10.1,57.4
		c21.9,29,42.2,59.2,64.7,87.7C1668.3,1436.4,1668.8,1435.9,1724.3,1434.6z M1615.5,1442.6c-27.7-36.6-53.5-70.7-80.7-106.5
		c-18.3,44.5-35.8,86.9-54.1,131.4C1527,1458.9,1569.3,1451.2,1615.5,1442.6z M1380.2,1557.6c-2.5-3.1-5-6.3-7.5-9.4
		c-21.6,15.1-43.6,29.6-64.2,45.9c-3.8,3-1.5,13.5-2.1,20.6c7-0.2,16.6,2.5,20.4-1.1C1345.5,1595.8,1362.6,1576.4,1380.2,1557.6z
		 M1805.6,1492.5c-27.5-4.4-50.8-8.1-74.1-11.8C1767.9,1517.9,1785.6,1521.1,1805.6,1492.5z M1525.6,1204.7c0-24,0-48,0-73.2
		C1498.1,1141.3,1497.1,1159.2,1525.6,1204.7z"/>
</g>
</svg>
