<?xml version="1.0" encoding="utf-8"?>
<!-- Generator: Adobe Illustrator 24.1.2, SVG Export Plug-In . SVG Version: 6.00 Build 0)  -->
<svg version="1.1" id="Livello_1" xmlns="http://www.w3.org/2000/svg" xmlns:xlink="http://www.w3.org/1999/xlink" x="0px" y="0px"
	 viewBox="0 0 3061.4 3061.4" style="enable-background:new 0 0 3061.4 3061.4;" xml:space="preserve">
<style type="text/css">
	.st0{fill:none;}
	.st1{fill:#666666;}
</style>
<rect class="st0" width="3061.4" height="3061.4"/>
<path class="st1" d="M2413.2,2669.4H683.4V389.6h1211.8L2413,907.3L2413.2,2669.4L2413.2,2669.4z M705.6,2647.7H2392V912.6
	l-506.1-500.4H705.6V2647.7z"/>
<path class="st1" d="M2402.1,917l-512.2,1.4V405.6l20.4,0.6l491.8,494.5V917z M1913.1,892.6l446.7-2.5l-446.3-446.3L1913.1,892.6z"
	/>
<g>
	<path class="st1" d="M1689.5,1895.3c0-7,0.1-14.1,0-21.2c-0.1-8.6,2-16.1,9.2-21.7c1.9-1.5,3.1-4.8,3.1-7.3
		c0.2-29.6,0.2-59.3,0.2-88.9c0-0.3-0.3-0.6-0.7-1.6c-3.3,2.4-6.7,4.4-9.5,7.1c-17,16.5-33.9,33.2-50.8,49.8
		c-6.9,6.8-15.2,10.4-24.9,10.4c-124.2,0-248.3,0-372.5,0c-17,0-25.7-7.5-26.2-24.4c-0.7-23.3-0.6-46.7-0.1-70.1
		c0.2-12,7-18.2,19.1-18.2c44.1-0.2,88.2-0.2,132.4-0.2c8.6,0,14.7,4.2,18,12c1.6,3.9,3.9,4.8,7.9,4.8c59.6-0.1,119.3-0.2,178.9,0
		c7.6,0,13.4-2.6,18.5-7.9c16.8-17.5,33.8-34.7,50.6-52.2c4.6-4.8,9.9-7.2,16.6-7.1c19.5,0.3,39.1,0.6,58.6,0.2
		c5.9-0.1,12.1-1.6,17.5-3.9c9.7-4.2,19-9.5,28.5-14.2c16.4-8,30.3-3.9,39.9,11.7c2.5,4.1,5.7,6.4,10.5,6.7c1.6,0.1,3.1,0.4,4.7,0.7
		c10.5,1.6,16,6,16.4,16.4c0.7,19.8,0.8,39.7-0.2,59.5c-0.6,12.2-8.3,18.6-20.6,19.4c-7.8,0.5-15.7,0.1-24.3,0.1c0,2.4,0,4.1,0,5.8
		c0,26,0.1,52-0.1,78c-0.1,7.9,2.3,13.9,9.1,18.7c6.4,4.5,7,12.2,7.6,19.3c0.5,6,0.1,12.1,0.1,18.7c4.8,0,9.1,0.4,13.4-0.2
		c1.4-0.2,2.9-2.5,3.7-4.2c7.1-16.1,18-28.1,35.2-33.4c21.7-6.7,44.7,1.8,57.4,21.3c12.9,19.9,11.3,45.7-4,63.1
		c-20.8,23.7-55.4,24.4-77.3,1.7c-1.4-1.5-3.1-2.9-4.2-4.6c-5.8-9.1-14.1-10.4-24.3-7.7c0,2.9,0,6,0,9.1c-0.2,14.8-8,22.7-22.6,22.7
		c-22.8,0.1-45.7,0.1-68.5,0c-17.6-0.1-25.6-7.9-26-25.5c-0.1-2.1,0-4.1,0-6.1c-11-3.5-18.2-1.1-24.9,7.8
		c-14,18.7-36.7,25.8-58.1,18.2c-21.9-7.8-36.5-29.7-35.4-53.3c1-22.3,16.8-41.7,38.6-47.3c24.1-6.3,47,4.5,59.9,28
		c0.2,0.5,0.5,0.9,0.7,1.4C1675.8,1897.4,1676,1897.5,1689.5,1895.3z"/>
	<path class="st1" d="M1702,1157.2c0-6.2,0-11.6,0-16.9c0.2-16.5,9.2-25.7,25.5-25.9c14.1-0.2,28.2-0.2,42.4,0
		c12.6,0.1,19.6,7,20,19.7c0.2,6.9,0,13.9,0,21.5c4,0,7.6-0.1,11.2,0c6.6,0.2,13.3,0.1,19.8,0.8c8.4,0.9,12.7,5.4,14.2,13.7
		c0.3,1.9,0.7,3.8,0.7,5.7c-0.1,16.9,0.1,33.8-0.6,50.7c-0.6,13.9-6,19.1-19.8,21c-2.4,0.3-4.8,0.7-7.8,1.2
		c-1.5,16.2-13.6,22.9-26.5,29.1c-13.2,6.3-26.1,13.2-39.3,19.5c-4.3,2.1-9,3.9-13.7,4.9c-11.9,2.5-21.6-1.4-28.8-11.3
		c-7.2-10-7.5-20.4-1.2-30.8c2.4-3.9,5.4-7.5,8.9-12.2c-4.1,0-7.2,0-10.2,0c-11.7,0.1-23.4,0.1-35.1,0.3c-9.8,0.2-17.9-3-24.9-10
		c-15-15.1-30.3-29.9-45.4-44.9c-5.1-5.1-10.9-7.5-18.2-7.5c-57.7,0.1-115.5,0-173.2,0.2c-3.4,0-7.3,1.2-10.2,3
		c-9.5,5.9-19.2,9.3-30.9,9.1c-39.4-0.5-78.8,0-118.2,0c-16.4,0-23.8-7.2-23.9-23.5c-0.1-22.7-0.2-45.3,0.5-68
		c0.4-13.9,7.2-20,21-21.1c3.5-0.3,7-0.2,10.5-0.2c69.4,0,138.8,0.1,208.2,0c48.1-0.1,96.3-0.4,144.4-0.5c7.3,0,14.6,0.2,21.9,0.6
		c1.4,0.1,2.8,1.3,4.2,2c16.7,8.8,26.5,25,39.8,37.4c10.8,10.1,21.2,20.6,31.9,30.9C1699.8,1155.9,1700.5,1156.2,1702,1157.2z"/>
	<path class="st1" d="M1806.8,1501.9c-0.1,7-4.8,15.6-14.9,20.7c-18.9,9.6-37.8,19.3-56.8,28.6c-14.6,7.1-30.8,1.2-38.1-13.2
		c-7.2-14.2-2.5-30.7,11.7-38.2c18.7-10,37.6-19.6,56.7-28.8C1785.4,1461.2,1806.9,1475.3,1806.8,1501.9z"/>
	<path class="st1" d="M1777.9,1383.7c13,0.4,24.1,8.7,27.7,21.1c3.8,13-0.4,26.7-11.7,32.9c-19.8,10.8-40,21.1-60.4,30.6
		c-13.9,6.5-29.7-0.3-36.6-14.1c-6.9-13.7-2.9-29.9,10.6-37.3c19.5-10.7,39.5-20.4,59.4-30.3
		C1770.2,1384.8,1774.2,1384.6,1777.9,1383.7z"/>
	<path class="st1" d="M1806.7,1333.6c0,9.4-5,16.1-12.6,20.2c-20,10.6-40.1,21-60.5,30.6c-13.8,6.4-29.4,0-36.5-13.5
		c-7.2-13.7-3.2-29.9,10.3-37.9c13.5-7.9,27.6-14.7,41.5-21.9c4-2.1,8.3-3.8,12.2-5.9C1784.7,1292.2,1806.5,1308.2,1806.7,1333.6z"
		/>
	<path class="st1" d="M1806.8,1581.8c-0.2,13-6.1,19.8-14.6,24.4c-14.2,7.6-28.7,14.9-43.1,22.2c-4.6,2.4-9.4,4.6-14.1,6.7
		c-14.8,6.6-31,0.8-38.2-13.5c-7.1-14.2-2.4-30.7,11.8-38.2c19.3-10.3,38.9-20.1,58.6-29.5c13.8-6.6,30.1,0.5,36.2,15.3
		C1805.4,1573.9,1806.1,1579.1,1806.8,1581.8z"/>
	<g>
		<path class="st1" d="M1528,1675.2c-111.2,0-221.8,0-332.8,0c0-146.2,0-292.4,0-439.1c1.3,0,2.6,0,3.8,0c67.4,0,134.9,0,202.3-0.1
			c3.4,0,4.4,0.9,4.4,4.3c-0.1,37.4-0.1,74.8-0.1,112.2c0,5.9,0,5.9,5.8,5.9c37.2,0,74.3-0.1,111.5-0.2c4.9,0,4.9,0,4.9,4.8
			c0,102,0,204,0,306C1528,1671,1528,1672.9,1528,1675.2z"/>
		<path class="st1" d="M1429.9,1239.4c31.7,31.6,63.4,63,95.3,94.7c-1.2,0.1-2.3,0.2-3.4,0.2c-29.1,0-58.1,0-87.2,0
			c-4.7,0-4.7,0-4.8-4.7c0-29.1,0-58.1,0-87.2C1429.8,1241.3,1429.9,1240.1,1429.9,1239.4z"/>
	</g>
</g>
</svg>
