<?xml version="1.0" encoding="utf-8"?>
<!-- Generator: Adobe Illustrator 24.1.2, SVG Export Plug-In . SVG Version: 6.00 Build 0)  -->
<svg version="1.1" id="Livello_1" xmlns="http://www.w3.org/2000/svg" xmlns:xlink="http://www.w3.org/1999/xlink" x="0px" y="0px"
	 viewBox="0 0 3061.4 3061.4" style="enable-background:new 0 0 3061.4 3061.4;" xml:space="preserve">
<style type="text/css">
	.st0{fill:none;}
	.st1{fill:#666666;}
</style>
<rect class="st0" width="3061.4" height="3061.4"/>
<path class="st1" d="M2413.2,2669.4H683.4V389.6h1211.8L2413,907.3L2413.2,2669.4L2413.2,2669.4z M705.6,2647.7H2392V912.6
	l-506.1-500.4H705.6V2647.7z"/>
<path class="st1" d="M2402.1,917l-512.2,1.4V405.6l20.4,0.6l491.8,494.5V917z M1913.1,892.6l446.7-2.5l-446.3-446.3L1913.1,892.6z"
	/>
<g>
	<path class="st1" d="M1547.1,1834.4c-11,1-16.8,1.1-22.4,2c-32.1,5.1-42.9-1.7-48.1-33.4c-1-6.2,3.9-15.2,8.8-20.2
		c6.7-6.9,16.1-11.1,24.1-16.8c21.7-15.4,20.7-35.4-2.6-49.4c-37-22.3-36.1-22-27.1-51c5.5-17.5,15.5-23.8,32.8-20.4
		c2.4,0.5,4.9,0.5,7.3,0.9c44.7,6.3,55.1-6.4,38.9-49.6c-6.5-17.4-7.3-29.2,11.3-40.9c19.7-12.5,33.1-12.4,48.3,6
		c7.6,9.2,19.3,18.6,30.5,20.7c20.1,3.8,26.5-13.1,32-29.1c10.6-30.7,26.8-38.1,55.4-24.2c5.8,2.8,10.2,12,11.9,19
		c2.5,10.2,1.1,21.3,2.8,31.7c3.1,19,22.9,28.3,39.8,19.5c6.5-3.4,12.9-7.1,19.4-10.6c20-10.8,51,3,53.5,25.7
		c0.9,8.2-5.7,18.2-11.1,25.8c-28,39.5-22.6,56.3,24.2,65.3c23.2,4.5,31.4,15.3,30.1,38.4c-0.9,15.6-5.3,24.9-21.2,27.6
		c-8,1.3-15.9,3.5-23.8,5.3c-25.4,5.8-31.9,25.8-15.5,46.8c13,16.8,33,30.9,9.1,55.9c-14.1,14.8-24.7,18-42,8.1
		c-10.9-6.2-24.2-14.3-35.3-12.8c-21,2.8-27.8,19.5-24,40.2c4.6,24.8-7.2,35.5-31,39c-17.6,2.6-28.2-2.4-34.2-19.1
		c-3.3-9.2-7.4-18.2-12.2-26.7c-6.8-11.9-29.5-14.4-39-4.6c-5.7,5.8-11.4,11.8-16.2,18.5c-13.8,19.3-28.3,15.2-46.4,5.1
		c-17.9-9.9-18.5-21.3-13-38.5c4.8-15,18.2-31.8-1.2-46.5C1555.5,1838.2,1549.2,1835.5,1547.1,1834.4z M1591.1,1740.6
		c0.3,52.4,42.7,93.8,96.2,94.1c51.3,0.3,95.6-44.2,95.2-95.8c-0.3-50.2-44.2-94.1-94.3-94.2
		C1633.8,1644.6,1590.8,1687,1591.1,1740.6z"/>
	<path class="st1" d="M1277.2,1440.8c-11.5,1.7-17.1,2.5-22.7,3.4c-36.5,6.4-50.3-2.7-55.9-39.2c-1-6.2,2.3-14.9,6.6-19.7
		c6.1-6.8,14.6-12,22.9-16.3c37.4-19.4,35.2-54.4-1.6-67.7c-29.5-10.7-35.2-29-22.8-57.5c7.3-16.9,16.6-24.1,34.4-20.8
		c8.4,1.6,16.7,3.2,25.2,4c31.1,3,45.8-17.8,36-47.7c-6.1-18.6-24.8-38.3,3.7-56.6c30.5-19.5,37.5-20.6,61.9,7.2
		c13.9,15.9,28.6,31.2,49.3,17.2c10.6-7.2,16.9-23.2,21.5-36.5c6.9-19.9,16.7-27.9,39.4-26.1c28.6,2.2,40.2,13.2,39.6,42.1
		c-0.2,13.4,4.5,29.6,12.9,39.8c15.3,18.7,31.8,5.7,47.3-4c16.9-10.5,33.1-22,52.1-0.2c23.2,26.7,24.5,30.3,2,59.9
		c-28.1,37-19.8,59.3,26.1,69.7c37.8,8.6,41,13.3,39.9,47.9c-0.6,17.3-8.1,26.2-24.6,29c-6.5,1.1-12.9,3.1-19.3,4.5
		c-39.7,9-48,30.2-21.9,60.5c16.6,19.3,28.4,33.8,6.6,60c-21.8,26.2-39.3,13.8-59,3.2c-15.6-8.4-32.1-18.2-45.3-1
		c-7.8,10.2-11.9,26.2-11.2,39.3c1.6,29.1-11,40.1-38.6,43.8c-21.1,2.8-32-4-38.6-22.8c-3.4-9.8-7.4-19.5-12.5-28.4
		c-9.1-16.1-34-18.7-47.2-5.6c-0.7,0.7-1.2,1.5-1.8,2.2c-37.9,40.2-37.2,38.7-68,23.9c-37.6-18.1-10.2-42.9-9.9-65.3
		c0.2-10.7-2.9-22.8-8.4-31.8C1291.3,1444.8,1280.7,1442.6,1277.2,1440.8z M1331.3,1331.6c-0.8,60.3,48.6,110.3,108.9,110.4
		c59.4,0,109.3-48,110.4-106.3c1.2-62.7-47.2-112.7-109.1-112.8C1380.1,1222.7,1332.1,1270.1,1331.3,1331.6z"/>
</g>
</svg>
