<?xml version="1.0" encoding="utf-8"?>
<!-- Generator: Adobe Illustrator 24.1.2, SVG Export Plug-In . SVG Version: 6.00 Build 0)  -->
<svg version="1.1" id="Livello_1" xmlns="http://www.w3.org/2000/svg" xmlns:xlink="http://www.w3.org/1999/xlink" x="0px" y="0px"
	 viewBox="0 0 3061.4 3061.4" style="enable-background:new 0 0 3061.4 3061.4;" xml:space="preserve">
<style type="text/css">
	.st0{fill:none;}
	.st1{fill:#666666;}
</style>
<rect class="st0" width="3061.4" height="3061.4"/>
<path class="st1" d="M2413.2,2669.4H683.4V389.6h1211.8L2413,907.3L2413.2,2669.4L2413.2,2669.4z M705.6,2647.7H2392V912.6
	l-506.1-500.4H705.6V2647.7z"/>
<path class="st1" d="M2402.1,917l-512.2,1.4V405.6l20.4,0.6l491.8,494.5V917z M1913.1,892.6l446.7-2.5l-446.3-446.3L1913.1,892.6z"
	/>
<g>
	<path class="st1" d="M1699.5,1524.2c0,120.6,0,241.2,0,361.8c0,8.9,2.4,19.2-1.2,26.4c-8.6,17.5,5.3,28.8-31.4,47.9
		c-14.2,7.4-41.9-0.1-55.7-11c-32.3-25.7-59.9-57.3-89.3-86.6c-30.8-30.7-62-61.1-92-92.6c-21.2-22.3-45.4-32.6-76.5-31.4
		c-41.5,1.6-83.1,1.1-124.6,0.1c-57-1.4-85.2-30.3-85.5-87.1c-0.3-83-0.4-166.1,0.1-249.1c0.3-61.9,29-89.9,91.6-90.4
		c41.5-0.4,83.1-0.6,124.6,0c27.5,0.5,49.2-9.1,68.6-28.9c56.7-58,114.3-115,171.7-172.2c18-18,37.5-34.3,65.3-23.5
		c30,11.7,34.4,37.6,34.3,65.9c-0.2,123.6-0.1,247.1-0.1,370.7C1699.4,1524.2,1699.5,1524.2,1699.5,1524.2z M1187.8,1687.9
		c50.3,0,95.5,1.9,140.4-0.4c66.7-3.4,121.1,18.1,166.4,68.9c46,51.5,95.2,100,149.3,156.3c0-259.6,0-507.7,0-762.8
		c-56.8,58-109.5,109.9-160.1,163.9c-37.8,40.3-83,58.1-136.7,57.6c-44.2-0.4-88.3,0-132.5-0.1c-14.4,0-27.1,0-27,20.8
		C1188,1488.6,1187.8,1585.1,1187.8,1687.9z"/>
	<path class="st1" d="M1996.2,1524.4c-4.7,101.3-40.7,184.5-97.4,259.6c-14.9,19.7-34.7,24-54.6,9.4c-19.9-14.6-19.6-33.8-7.6-55.1
		c23-41.2,49.2-81.6,65.6-125.5c33.1-88.9,14.9-173.1-37.4-250.7c-6.1-9-13.3-17.2-20.3-25.5c-20.3-24.5-21.3-46.5-2.7-62.5
		c18.4-15.8,39.9-11.8,61.6,12.3c47.6,53,75.4,115.5,87.6,185.1C1994.4,1490.8,1994.9,1510.8,1996.2,1524.4z"/>
	<path class="st1" d="M1869.9,1532.4c-0.9,64.9-20,119.9-55.6,169.4c-14.4,20-33.8,24.9-54.2,11.9c-20.8-13.2-24.7-33.9-10.6-53.9
		c60.3-85.9,54.5-171-0.1-256.7c-13.1-20.6-9.9-40.9,10.9-54.1c20.6-13,40.1-7.8,54.1,12.4
		C1850.7,1413.8,1868.4,1472.5,1869.9,1532.4z"/>
</g>
</svg>
