<?xml version="1.0" encoding="utf-8"?>
<!-- Generator: Adobe Illustrator 24.1.2, SVG Export Plug-In . SVG Version: 6.00 Build 0)  -->
<svg version="1.1" id="Livello_1" xmlns="http://www.w3.org/2000/svg" xmlns:xlink="http://www.w3.org/1999/xlink" x="0px" y="0px"
	 viewBox="0 0 3061.4 3061.4" style="enable-background:new 0 0 3061.4 3061.4;" xml:space="preserve">
<style type="text/css">
	.st0{fill:none;}
	.st1{fill:#666666;}
</style>
<rect class="st0" width="3061.4" height="3061.4"/>
<path class="st1" d="M2413.2,2669.4H683.4V389.6h1211.8L2413,907.3L2413.2,2669.4L2413.2,2669.4z M705.6,2647.7H2392V912.6
	l-506.1-500.4H705.6V2647.7z"/>
<path class="st1" d="M2402.1,917l-512.2,1.4V405.6l20.4,0.6l491.8,494.5V917z M1913.1,892.6l446.7-2.5l-446.3-446.3L1913.1,892.6z"
	/>
<g>
	<path class="st1" d="M1924.8,1148.9c-24.2,0-48.4-0.4-72.5,0.2c-14.5,0.3-25.4-8.5-25.3-34.8c0.1-24.6,10.9-33.6,24.4-33.6
		c49.6,0,99.1,0,148.7,0c13.5,0,24.2,9,24.4,33.6c0.1,26.3-10.8,35.1-25.3,34.8C1974.4,1148.4,1949.6,1148.9,1924.8,1148.9z"/>
	<path class="st1" d="M1923.9,1352.2c-24.2,0-48.4-0.3-72.5,0.1c-13.8,0.3-23.9-8.6-24.4-33.2c-0.4-24.8,9.8-35,23.4-35
		c50.2-0.2,100.4-0.2,150.6,0c13.5,0.1,23.8,10.3,23.4,35c-0.4,24.5-10.6,33.5-24.3,33.2C1974.7,1351.9,1949.3,1352.2,1923.9,1352.2
		z"/>
	<path class="st1" d="M1924.8,1555.5c-24.2,0-48.4-0.4-72.5,0.2c-14.5,0.3-25.4-8.5-25.2-34.9c0.1-24.6,10.9-33.5,24.4-33.5
		c49.6,0,99.1,0,148.7,0c13.5,0,24.2,9.1,24.4,33.6c0.1,26.4-10.8,35.1-25.3,34.8C1974.4,1555.1,1949.6,1555.5,1924.8,1555.5z"/>
	<path class="st1" d="M1923.9,1758.2c-24.2,0-48.4-0.3-72.5,0.1c-13.8,0.3-23.9-8.6-24.4-33.2c-0.4-24.8,9.8-35,23.4-35
		c50.2-0.2,100.4-0.2,150.6,0c13.5,0.1,23.8,10.3,23.4,35c-0.4,24.5-10.6,33.5-24.3,33.2C1974.7,1757.9,1949.3,1758.2,1923.9,1758.2
		z"/>
	<path class="st1" d="M1924.8,1961.5c-24.2,0-48.4-0.4-72.5,0.2c-14.5,0.3-25.4-8.5-25.2-34.9c0.1-24.6,10.9-33.5,24.4-33.5
		c49.6,0,99.1,0,148.7,0c13.5,0,24.2,9.1,24.4,33.6c0.1,26.4-10.8,35.1-25.3,34.8C1974.4,1961.1,1949.6,1961.5,1924.8,1961.5z"/>
	<path class="st1" d="M1176.9,1758.2c-24.2,0-48.4-0.3-72.5,0.1c-13.8,0.3-23.9-8.6-24.4-33.2c-0.4-24.8,9.8-35,23.4-35
		c50.2-0.2,100.4-0.2,150.6,0c13.5,0.1,23.8,10.3,23.4,35c-0.4,24.5-10.6,33.5-24.3,33.2C1227.7,1757.9,1202.3,1758.2,1176.9,1758.2
		z"/>
	<path class="st1" d="M1177.8,1961.5c-24.2,0-48.4-0.4-72.5,0.2c-14.5,0.3-25.4-8.5-25.2-34.9c0.1-24.6,10.9-33.5,24.4-33.5
		c49.6,0,99.1,0,148.7,0c13.5,0,24.2,9.1,24.4,33.6c0.1,26.4-10.8,35.1-25.3,34.8C1227.4,1961.1,1202.6,1961.5,1177.8,1961.5z"/>
	<path class="st1" d="M1428.9,1758.2c-24.2,0-48.4-0.3-72.5,0.1c-13.8,0.3-23.9-8.6-24.4-33.2c-0.4-24.8,9.8-35,23.4-35
		c50.2-0.2,100.4-0.2,150.6,0c13.5,0.1,23.8,10.3,23.4,35c-0.4,24.5-10.6,33.5-24.3,33.2C1479.7,1757.9,1454.3,1758.2,1428.9,1758.2
		z"/>
	<path class="st1" d="M1429.8,1961.5c-24.2,0-48.4-0.4-72.5,0.2c-14.5,0.3-25.4-8.5-25.2-34.9c0.1-24.6,10.9-33.5,24.4-33.5
		c49.6,0,99.1,0,148.7,0c13.5,0,24.2,9.1,24.4,33.6c0.1,26.4-10.8,35.1-25.3,34.8C1479.4,1961.1,1454.6,1961.5,1429.8,1961.5z"/>
	<path class="st1" d="M1675.9,1758.2c-24.2,0-48.4-0.3-72.5,0.1c-13.8,0.3-23.9-8.6-24.4-33.2c-0.4-24.8,9.8-35,23.4-35
		c50.2-0.2,100.4-0.2,150.6,0c13.5,0.1,23.8,10.3,23.4,35c-0.4,24.5-10.6,33.5-24.3,33.2C1726.7,1757.9,1701.3,1758.2,1675.9,1758.2
		z"/>
	<path class="st1" d="M1676.8,1961.5c-24.2,0-48.4-0.4-72.5,0.2c-14.5,0.3-25.4-8.5-25.2-34.9c0.1-24.6,10.9-33.5,24.4-33.5
		c49.6,0,99.1,0,148.7,0c13.5,0,24.2,9.1,24.4,33.6c0.1,26.4-10.8,35.1-25.3,34.8C1726.4,1961.1,1701.6,1961.5,1676.8,1961.5z"/>
</g>
<g>
	<path class="st1" d="M1232.2,1564.4c-7.2-13.9-12.9-24.5-18.3-35.2c-25.3-49.9-51.2-99.5-75.4-149.9c-7.5-15.5-16.5-22.5-33.6-20.2
		c-8.9,1.2-18.1,0.2-29.8,0.2c0-25.6-0.5-49.7,0.6-73.7c0.1-3.3,8.1-8.8,12.5-8.9c26.8-0.9,53.7-1.4,80.4,0.2
		c6.5,0.4,14.9,7.7,18.3,14c15.3,28.2,29.2,57.2,45.3,89.4c4.2-7.7,7.2-13.1,10-18.6c43-85.9,86.5-171.6,128.6-258
		c8.2-16.8,18-22.1,36.4-22c117,0.9,234,0.8,351,0.1c17.4-0.1,24.4,4.4,22.5,22.2c-1.3,12-0.2,24.3-0.3,36.5
		c0,25.1,0,25.1-24.4,25.1c-93.2,0-186.5,1.6-279.7-0.9c-31.9-0.8-47.9,8.4-61.8,37.6c-54.6,113.9-112.4,226.3-169.2,339.2
		C1241.9,1548.4,1237.7,1554.8,1232.2,1564.4z"/>
	<path class="st1" d="M1425.1,1239.2c28.3,0,52.1-0.8,75.7,0.6c5.6,0.3,12.2,7.1,15.9,12.6c22.1,32,43.4,64.5,66.9,99.7
		c6.8-9.9,12.4-18.1,17.9-26.3c15.9-23.7,32.5-47.1,47.4-71.5c7.4-12,16-16.2,29.8-15.5c19.9,1.1,39.9,0.3,63.9,0.3
		c-5.1,8-7.9,13.1-11.3,17.6c-30.2,40.4-59.7,81.5-91.3,120.8c-12.1,15.1-10.4,24.7,0.7,38.8c30.4,38.7,59.3,78.7,88.7,118.2
		c3.8,5.1,7,10.7,13,19.9c-29,0-53.6,0.6-78.1-0.6c-4.3-0.2-9.1-7.5-12.4-12.3c-22.3-32.6-44.3-65.4-68-100.5
		c-10.9,16-21.1,30.7-31.1,45.5c-6.2,9-11.9,18.4-18.3,27.2c-9.9,13.6-18.1,35.1-31,38.6c-22.9,6.3-48.9,1.8-77.6,1.8
		c5.5-9,9-15.6,13.4-21.5c30.5-40.9,61-81.9,92.1-122.5c7.5-9.8,8-16.7,0.1-26.9c-31.6-40.9-62.3-82.4-93.3-123.8
		C1434.4,1254.3,1431.2,1248.6,1425.1,1239.2z"/>
</g>
</svg>
