<?xml version="1.0" encoding="utf-8"?>
<!-- Generator: Adobe Illustrator 24.1.2, SVG Export Plug-In . SVG Version: 6.00 Build 0)  -->
<svg version="1.1" id="Livello_1" xmlns="http://www.w3.org/2000/svg" xmlns:xlink="http://www.w3.org/1999/xlink" x="0px" y="0px"
	 viewBox="0 0 3061.4 3061.4" style="enable-background:new 0 0 3061.4 3061.4;" xml:space="preserve">
<style type="text/css">
	.st0{fill:none;}
	.st1{fill:#666666;}
</style>
<rect class="st0" width="3061.4" height="3061.4"/>
<path class="st1" d="M2413.2,2669.4H683.4V389.6h1211.8L2413,907.3L2413.2,2669.4L2413.2,2669.4z M705.6,2647.7H2392V912.6
	l-506.1-500.4H705.6V2647.7z"/>
<path class="st1" d="M2402.1,917l-512.2,1.4V405.6l20.4,0.6l491.8,494.5V917z M1913.1,892.6l446.7-2.5l-446.3-446.3L1913.1,892.6z"
	/>
<g>
	<g>
		<path class="st1" d="M1207.8,1968.6c-9.7,0-17.9-1.2-24.4-3.7v-29.9c8.3,2.1,15.6,3.1,21.7,3.1c19.4,0,29.2-12.3,29.2-36.9v-210.9
			h35.7V1900c0,22.2-5.3,39.2-15.9,51C1243.6,1962.7,1228.1,1968.6,1207.8,1968.6z"/>
		<path class="st1" d="M1451.9,1848.8c0,19.3-7,34.5-21,45.5c-14,11-33.3,16.5-57.9,16.5c-24.6,0-44.8-3.8-60.4-11.5v-33.6
			c9.9,4.7,20.5,8.3,31.6,11c11.2,2.7,21.6,4,31.2,4c14.1,0,24.5-2.7,31.2-8c6.7-5.4,10-12.6,10-21.6c0-8.1-3.1-15-9.2-20.7
			c-6.2-5.7-18.9-12.4-38.1-20.1c-19.8-8-33.8-17.2-42-27.5c-8.1-10.3-12.2-22.7-12.2-37.2c0-18.2,6.4-32.4,19.3-42.9
			c12.9-10.4,30.2-15.6,51.9-15.6c20.8,0,41.6,4.6,62.2,13.7l-11.3,29c-19.4-8.1-36.6-12.2-51.8-12.2c-11.5,0-20.2,2.5-26.2,7.5
			c-6,5-8.9,11.6-8.9,19.9c0,5.7,1.2,10.5,3.6,14.5c2.4,4,6.3,7.8,11.8,11.4c5.5,3.6,15.3,8.3,29.5,14.1c16,6.6,27.7,12.9,35.1,18.6
			c7.4,5.8,12.9,12.3,16.4,19.5C1450.1,1830.4,1451.9,1838.9,1451.9,1848.8z"/>
		<path class="st1" d="M1687.2,1798.8c0,35.4-8.9,63-26.6,82.6c-17.7,19.6-42.8,29.5-75.2,29.5c-32.8,0-58.1-9.7-75.7-29.2
			c-17.6-19.5-26.4-47.2-26.4-83.1c0-35.9,8.9-63.5,26.6-82.8c17.7-19.3,43-28.9,75.8-28.9c32.3,0,57.4,9.8,75,29.3
			C1678.4,1735.7,1687.2,1763.2,1687.2,1798.8z M1521.1,1798.8c0,26.8,5.4,47.1,16.2,61c10.8,13.8,26.8,20.8,48.1,20.8
			c21.1,0,37.1-6.8,47.9-20.5c10.8-13.7,16.2-34.1,16.2-61.2c0-26.7-5.3-46.9-16-60.7c-10.7-13.8-26.6-20.7-47.7-20.7
			c-21.3,0-37.4,6.9-48.3,20.7C1526.5,1751.8,1521.1,1772.1,1521.1,1798.8z"/>
		<path class="st1" d="M1915.2,1907.9h-43.6l-107-173.4h-1.2l0.7,9.7c1.4,18.5,2.1,35.3,2.1,50.6v113.1h-32.3v-217.6h43.2
			l106.7,172.5h0.9c-0.2-2.3-0.6-10.6-1.2-24.9c-0.6-14.3-0.9-25.5-0.9-33.6v-114h32.6V1907.9z"/>
	</g>
	<g>
		<path class="st1" d="M1412.5,1405.6c0-33.8-24.2-50.7-72.6-50.7v-52.1c24.6,0,42.8-4.1,54.7-12.4c11.9-8.3,17.9-20.9,17.9-37.8
			v-84.8c0-28.4,9.9-49.2,29.6-62.6c19.7-13.4,49.3-20,88.8-20v49.6c-20.7,0.9-35.8,5.1-45.1,12.7c-9.4,7.5-14,18.8-14,33.7v81
			c0,36.2-20.8,57.8-62.5,64.9v3.3c41.6,6.5,62.5,28.1,62.5,64.6v81.6c0,14.9,4.6,26.2,13.9,33.8c9.3,7.6,24.4,11.6,45.3,12v49.9
			c-42-0.4-72.2-7.5-90.7-21.4c-18.5-13.9-27.7-36.4-27.7-67.5V1405.6z"/>
		<path class="st1" d="M1689.9,1489.4c0,28.4-9,49.2-27.1,62.5c-18.1,13.3-47.1,20.1-86.9,20.5v-49.9c17.3-0.2,30.7-3.7,40.4-10.5
			c9.6-6.8,14.5-18.6,14.5-35.3v-71.5c0-22,4.8-39,14.5-51c9.6-12,25.6-19.9,48-23.7v-3.3c-41.6-7.1-62.5-28.7-62.5-64.9v-81
			c0-14.9-4.1-26.1-12.4-33.7c-8.3-7.5-22.4-11.8-42.4-12.7v-49.6c40.6,0,69.7,7,87.4,20.9c17.7,13.9,26.6,36.7,26.6,68.3v78.3
			c0,18.2,5.8,31.1,17.3,38.7c11.5,7.6,28.7,11.5,51.4,11.5v52.1c-22.4,0-39.4,3.9-51.1,11.6c-11.7,7.7-17.6,20.8-17.6,39.1V1489.4z
			"/>
	</g>
</g>
</svg>
