<?xml version="1.0" encoding="utf-8"?>
<!-- Generator: Adobe Illustrator 24.1.2, SVG Export Plug-In . SVG Version: 6.00 Build 0)  -->
<svg version="1.1" id="Livello_1" xmlns="http://www.w3.org/2000/svg" xmlns:xlink="http://www.w3.org/1999/xlink" x="0px" y="0px"
	 viewBox="0 0 3061.4 3061.4" style="enable-background:new 0 0 3061.4 3061.4;" xml:space="preserve">
<style type="text/css">
	.st0{fill:none;}
	.st1{fill:#666666;}
</style>
<rect class="st0" width="3061.4" height="3061.4"/>
<path class="st1" d="M2413.2,2669.4H683.4V389.6h1211.8L2413,907.3L2413.2,2669.4L2413.2,2669.4z M705.6,2647.7H2392V912.6
	l-506.1-500.4H705.6V2647.7z"/>
<path class="st1" d="M2402.1,917l-512.2,1.4V405.6l20.4,0.6l491.8,494.5V917z M1913.1,892.6l446.7-2.5l-446.3-446.3L1913.1,892.6z"
	/>
<g>
	<path class="st1" d="M1989.9,1529.6c0.4,243.9-197.1,441.6-441,441.6c-243.8,0-441.3-197.7-440.9-441.6
		c0.4-242.9,196.9-439.7,439.7-440.3C1791.7,1088.8,1989.5,1285.7,1989.9,1529.6z M1548.5,1914.9c211.2,0.1,385.1-173.7,385-384.9
		c-0.1-210-173.2-383.8-383-384.3c-211.5-0.5-385.9,172.7-386.3,383.6C1164,1740.6,1337.5,1914.7,1548.5,1914.9z"/>
	<path class="st1" d="M1413.1,1530.6c0-61.2-1.2-122.4,0.9-183.5c0.5-13.9,8.7-33.8,19.4-39.5c10.8-5.8,32.1-1.9,43.7,5.7
		c90.2,59,179.3,119.8,268.5,180.4c32.9,22.3,33.2,50.7,0.6,72.8c-89.2,60.6-178.3,121.4-268.5,180.4c-11.7,7.6-30.9,10.5-44.3,7
		c-18.7-4.9-20.5-24.2-20.4-42.3C1413.3,1651.3,1413.1,1591,1413.1,1530.6z"/>
</g>
</svg>
