<?xml version="1.0" encoding="utf-8"?>
<!-- Generator: Adobe Illustrator 24.1.2, SVG Export Plug-In . SVG Version: 6.00 Build 0)  -->
<svg version="1.1" id="Livello_1" xmlns="http://www.w3.org/2000/svg" xmlns:xlink="http://www.w3.org/1999/xlink" x="0px" y="0px"
	 viewBox="0 0 3061.4 3061.4" style="enable-background:new 0 0 3061.4 3061.4;" xml:space="preserve">
<style type="text/css">
	.st0{fill:none;}
	.st1{fill:#666666;}
</style>
<rect class="st0" width="3061.4" height="3061.4"/>
<path class="st1" d="M2413.2,2669.4H683.4V389.6h1211.8L2413,907.3L2413.2,2669.4L2413.2,2669.4z M705.6,2647.7H2392V912.6
	l-506.1-500.4H705.6V2647.7z"/>
<path class="st1" d="M2402.1,917l-512.2,1.4V405.6l20.4,0.6l491.8,494.5V917z M1913.1,892.6l446.7-2.5l-446.3-446.3L1913.1,892.6z"
	/>
<g>
	<path class="st1" d="M1481.4,1149.9c-45.5,0-87.6,0-131.8,0c0,111.6,0,222.1,0,335.3c11.7,1,26.4-1.9,35.4,4
		c12.3,8.2,26.9,22.5,27.7,35.1c0.6,9.6-18,28.7-29,29.5c-46.3,3.3-93.2,3.3-139.5,0c-11-0.8-29.3-19.4-28.9-29.1
		c0.6-12.5,14.8-26.9,26.8-35.5c8-5.7,22.2-2.7,35.3-3.7c0-111.7,0-222.4,0-334.8c-43.9,0-86.8,0-132,0c-0.5,11.7,2.8,25.4-2.4,33.7
		c-7.9,12.6-20.9,28.3-33.4,29.9c-9.6,1.2-28.8-16-31.1-27.5c-4.9-24.4-3.3-50.6-1-75.7c1.9-21.1,18-30.3,38.3-30.3
		c132.3-0.2,264.6-0.4,396.9,0.2c25.3,0.1,38.6,14.6,38.2,40.6c-0.2,18-0.3,36,0,54c0.4,23.9-10.2,40.3-34.5,40.3
		c-22.8,0-32.7-16.5-33.7-38.3C1482.3,1169.1,1481.9,1160.7,1481.4,1149.9z"/>
	<path class="st1" d="M1547.7,1758.8c-137.6,0-275.3,0-412.9,0c-9.5,0-21.5,3.2-28-1.3c-11.7-8.1-27.7-20.7-28-31.8
		c-0.3-11.1,14.9-24.9,26.5-32.9c7.3-5.1,20.5-2.2,31.1-2.2c276.3-0.1,552.7-0.1,829-0.1c5.3,0,10.6,0,15.9,0
		c24.1-0.1,43.8,8.4,43.1,35.2c-0.6,26.7-20.5,33.4-44.7,33.3C1835.7,1758.6,1691.7,1758.8,1547.7,1758.8z"/>
	<path class="st1" d="M1547.6,1962.2c-137.6,0-275.3,0-412.9,0c-8.5,0-19.3,3.1-24.9-0.9c-12.4-8.8-30.6-21.1-30.8-32.2
		c-0.2-11.3,17.1-24.8,29.4-33.7c6.4-4.6,18.5-1.4,28-1.4c276.3,0,552.7,0,829,0c5.3,0,10.6,0,15.9,0c24.1-0.1,43.8,8.5,43.1,35.2
		c-0.7,26.7-20.5,33.3-44.7,33.3C1835.6,1962,1691.6,1962.2,1547.6,1962.2z"/>
	<path class="st1" d="M1854.2,1148.9c-41.3,0-82.6-0.4-123.8,0.2c-24.7,0.3-43.4-8.5-43.2-34.8c0.2-24.6,18.6-33.6,41.6-33.6
		c84.7,0,169.3,0,254,0c23,0,41.4,9,41.6,33.6c0.2,26.3-18.5,35.1-43.2,34.8C1938.9,1148.4,1896.6,1148.9,1854.2,1148.9z"/>
	<path class="st1" d="M1852.7,1352.2c-41.3,0-82.6-0.3-123.8,0.1c-23.5,0.3-40.9-8.6-41.6-33.2c-0.7-24.8,16.8-35,39.9-35
		c85.7-0.2,171.5-0.2,257.2,0c23.1,0.1,40.7,10.3,40,35c-0.6,24.5-18.1,33.5-41.5,33.2C1939.5,1351.9,1896.1,1352.2,1852.7,1352.2z"
		/>
	<path class="st1" d="M1854.2,1555.5c-41.3,0-82.6-0.4-123.8,0.2c-24.7,0.3-43.4-8.5-43.1-34.9c0.2-24.6,18.7-33.5,41.6-33.5
		c84.7,0,169.3,0,254,0c23,0,41.4,9.1,41.6,33.6c0.2,26.4-18.5,35.1-43.2,34.8C1938.9,1555.1,1896.5,1555.5,1854.2,1555.5z"/>
</g>
</svg>
