<?xml version="1.0" encoding="utf-8"?>
<!-- Generator: Adobe Illustrator 24.1.2, SVG Export Plug-In . SVG Version: 6.00 Build 0)  -->
<svg version="1.1" id="Livello_1" xmlns="http://www.w3.org/2000/svg" xmlns:xlink="http://www.w3.org/1999/xlink" x="0px" y="0px"
	 viewBox="0 0 3061.4 3061.4" style="enable-background:new 0 0 3061.4 3061.4;" xml:space="preserve">
<style type="text/css">
	.st0{fill:none;}
	.st1{fill:#666666;}
</style>
<rect class="st0" width="3061.4" height="3061.4"/>
<path class="st1" d="M2413.2,2669.4H683.4V389.6h1211.8L2413,907.3L2413.2,2669.4L2413.2,2669.4z M705.6,2647.7H2392V912.6
	l-506.1-500.4H705.6V2647.7z"/>
<path class="st1" d="M2402.1,917l-512.2,1.4V405.6l20.4,0.6l491.8,494.5V917z M1913.1,892.6l446.7-2.5l-446.3-446.3L1913.1,892.6z"
	/>
<g>
	<path class="st1" d="M1555.1,1965.3c-124.8,0-249.5,0.2-374.3-0.1c-91.6-0.2-132.4-41.1-132.4-131.9c0-201.7-0.1-403.4,0-605.2
		c0-93.3,48.4-141.2,142.3-141.2c234.4,0,468.7,0,703.1,0c91.8,0,144.8,53.3,144.9,145.3c0.1,205.2,0.1,410.4,0,615.7
		c0,89.4-27.8,117.4-116.3,117.4C1799.9,1965.3,1677.5,1965.3,1555.1,1965.3z M1103.2,1760.7c134.4-93.4,262.9-182.6,391.8-272.2
		c54.2,58.6,106.1,114.7,158.9,171.9c49.6-41.6,96.7-81.1,144.1-120.9c61,50.1,120.7,99.1,183,150.3c1.7-9.2,2.9-12.4,2.9-15.5
		c0.1-152.7,0.5-305.3-0.1-458c-0.2-43.6-33.7-74.5-79.5-74.5c-243.6-0.2-487.1-0.2-730.7,0c-39.9,0-69.8,26.7-70,66.8
		C1102.6,1390.2,1103.2,1571.8,1103.2,1760.7z M1648.9,1730c-55.4-59.8-108.9-117.7-162.9-176c-118.4,82.6-233.8,165.2-351.9,243.8
		c-30.5,20.3-36.7,43.7-29.2,73c7.7,30.3,33.6,39.7,62.6,39.7c258.6,0.2,517.2-0.1,775.8,0.4c29,0.1,40-14.6,40.5-40.5
		c0.6-32.6,0.9-65.3-0.2-97.8c-0.3-8.1-4.5-18.6-10.5-23.6c-57.5-48.6-115.8-96.3-174.7-144.9
		C1748.5,1646.2,1700.5,1686.6,1648.9,1730z"/>
	<path class="st1" d="M1820.3,1338.9c0.4,54.8-43.8,100.4-98.6,101.6c-54.4,1.2-100.5-43.6-101.5-98.3c-1-56.9,43.9-103.2,100-103.1
		C1774.8,1239.2,1819.8,1284.1,1820.3,1338.9z M1718.9,1385.7c24.5,0.7,47.3-21.1,47.6-45.4c0.3-24.8-21.3-46.8-46.6-45.8
		c-27,1.1-42.9,16-44.9,43.1C1673.1,1363.4,1693.6,1385,1718.9,1385.7z"/>
</g>
</svg>
