<?xml version="1.0" encoding="utf-8"?>
<!-- Generator: Adobe Illustrator 24.1.2, SVG Export Plug-In . SVG Version: 6.00 Build 0)  -->
<svg version="1.1" id="Livello_1" xmlns="http://www.w3.org/2000/svg" xmlns:xlink="http://www.w3.org/1999/xlink" x="0px" y="0px"
	 viewBox="0 0 3061.4 3061.4" style="enable-background:new 0 0 3061.4 3061.4;" xml:space="preserve">
<style type="text/css">
	.st0{fill:#DDDDDD;}
	.st1{fill:#666666;}
</style>
<path class="st0" d="M1966.7,2670.9c-250.6,0-705.8-0.2-1451-1.1c-26,0-40.9,0-42.5,0h-1.5c-7.2-0.1-71.8-2.7-138.6-36.3
	c-66.6-33.4-146.4-103.2-148.4-245.5c-2.8-214.2-0.1-1689.8,0-1710c-2.1-92.5,47.4-271.7,249.6-288.9h0.4l4.8-0.1h535.1
	c34.3-2.6,115.7,12.3,276.5,139.4l13.6,10.7l1.8,6.4c11,10.6,59.7,47.2,206.3,45.3c210.4-2.6,1078.2-0.1,1134.8,0.1
	c12.1-0.5,111.2-2.1,187,69.7c58,54.8,86.8,135.2,85.7,238.9c-2.3,213.6-0.9,1105.6,0,1479.3c0,15.4,0,24.3,0,25.3v2.5l-0.1,1.4
	c-5.1,89.7-68.2,259.5-270.7,262.3C2547.9,2670.5,2307.6,2670.9,1966.7,2670.9z"/>
<g>
	<g>
		<path class="st1" d="M2879.8,1294.5l-17.4-0.2c0.2-14.9,0.5-29.2,0.7-42.9c0.1-9.2,0.4-18.3,0.5-27c3.6-143.4-29-246.3-96.7-305.7
			c-63.4-55.4-133.9-52.7-154-50.4h-0.9c-79.4,0.1-853,1.2-1452.1,1.2c-322,0-593.6-0.2-680.1-1.2c-102.1-1.2-178.4,26-226.8,80.8
			c-58.1,65.6-53.2,145.9-51.7,161.4v0.9l0.4,89.3l-1.2,92.2l-17.4-0.2l1.2-92.1l-0.4-88.7c-1.7-17.8-6.4-103.8,55.9-174.3
			c51.8-58.7,132.4-87.9,240-86.7c86.6,0.9,358.1,1.2,679.8,1.2c598,0,1369.9-1,1451.8-1.2c22.4-2.3,98.7-4.9,166.9,54.6
			c71.8,63,106.3,170.4,102.6,319.2c-0.1,8.6-0.2,17.6-0.5,26.9C2880.3,1265.3,2879.9,1279.6,2879.8,1294.5z"/>
	</g>
	<g>
		<path class="st1" d="M1966.7,2670.9c-250.6,0-705.8-0.2-1451-1.1c-26,0-40.9,0-42.5,0h-1.5c-7.2-0.1-71.8-2.7-138.6-36.3
			c-66.6-33.4-146.4-103.2-148.4-245.5c-2.8-214.2-0.1-1689.8,0-1710c-2.1-92.5,47.4-271.7,249.6-288.9h0.4l4.8-0.1h535.1
			c34.3-2.6,115.7,12.3,276.5,139.4l13.6,10.7l1.8,6.4c11,10.6,59.7,47.2,206.3,45.3c210.4-2.6,1078.2-0.1,1134.8,0.1
			c12.1-0.5,111.2-2.1,187,69.7c58,54.8,86.8,135.2,85.7,238.9c-2.3,213.6-0.9,1105.6,0,1479.3c0,15.4,0,24.3,0,25.3v2.5l-0.1,1.4
			c-5.1,89.7-68.2,259.5-270.7,262.3C2547.9,2670.5,2307.6,2670.9,1966.7,2670.9z M472,2652.4h1.1c1.6,0,16.5,0,42.7,0
			c745.2,1,1200.4,1.1,1451,1.1c340.7,0,581.1-0.4,642.8-1c189.8-2.7,248.9-162.2,253.6-246.2l0.1-2.6c0-1,0-9.7,0-25.2
			c-0.7-373.7-2.2-1265.7,0-1479.4c1-98.8-26-174.7-80.3-226.1c-71-67.2-164.1-65.4-174.5-64.9h-0.2h-0.2
			c-54.8-0.2-924.3-2.7-1134.8-0.1c-157.2,2.1-208.5-39.3-220.5-52.2l-1.4-1.5l-1.5-5.2l-9.2-7.3
			C1078,413.7,1001.2,404.5,975.8,406.5h-0.6H440l-4.2,0.1c-189.3,16.2-235.5,184.5-233.6,271.3v0.1v0.1c0,12.8-2.8,1495.2,0,1709.9
			c1.8,133.6,76.5,198.9,138.7,230.2C404.1,2649.7,464.7,2652.3,472,2652.4z"/>
	</g>
</g>
</svg>
