<?xml version="1.0" encoding="UTF-8" standalone="no"?>
<!DOCTYPE svg PUBLIC "-//W3C//DTD SVG 1.1//EN" "http://www.w3.org/Graphics/SVG/1.1/DTD/svg11.dtd">
<svg width="100%" height="100%" viewBox="0 0 3062 3062" version="1.1" xmlns="http://www.w3.org/2000/svg" xmlns:xlink="http://www.w3.org/1999/xlink" xml:space="preserve" xmlns:serif="http://www.serif.com/" style="fill-rule:evenodd;clip-rule:evenodd;stroke-linejoin:round;stroke-miterlimit:2;">
    <g>
        <g transform="matrix(8.90313,0,0,9.73288,-28492.2,-17242.1)">
            <path d="M3460.8,2045.7C3425.5,2045.8 3284.6,2045.8 3249.3,2045.6C3244.9,2045.6 3240.3,2044.8 3236.2,2043.3C3226.1,2039.5 3222.7,2030.7 3221.1,2020.9C3220.9,2019.6 3221.3,1899.7 3220.8,1841.2C3220.7,1824.9 3234.1,1811.3 3250.1,1811.7C3278.5,1812.4 3307,1812 3335.4,1811.8C3347,1811.7 3355.5,1816.5 3361.4,1826.3C3365.8,1833.6 3370.5,1840.6 3374.7,1848C3376.3,1850.8 3378.3,1851.6 3381.4,1851.6C3407.7,1851.5 3434.1,1851.5 3460.4,1851.6C3477.8,1851.6 3490.111,1864.747 3490.211,1882.247L3490.904,1897.504C3494.104,1897.504 3505.866,1897.515 3505.866,1897.515C3505.866,1897.515 3527.511,1897.342 3522.6,1914.9C3518.6,1929.2 3514.4,1943.5 3510.4,1957.7C3504.5,1978.2 3498.6,1998.7 3492.9,2019.3C3489.6,2031.1 3482.6,2039.4 3471.4,2044C3468.2,2045.3 3464.4,2045.7 3460.8,2045.7Z" style="fill:rgb(221,221,221);fill-rule:nonzero;"/>
            <path d="M3460.8,2045.7C3425.5,2045.8 3284.6,2045.8 3249.3,2045.6C3244.9,2045.6 3240.3,2044.8 3236.2,2043.3C3226.1,2039.5 3222.7,2030.7 3221.1,2020.9C3220.9,2019.6 3221.3,1899.7 3220.8,1841.2C3220.7,1824.9 3234.1,1811.3 3250.1,1811.7C3278.5,1812.4 3307,1812 3335.4,1811.8C3347,1811.7 3355.5,1816.5 3361.4,1826.3C3365.8,1833.6 3370.5,1840.6 3374.7,1848C3376.3,1850.8 3378.3,1851.6 3381.4,1851.6C3407.7,1851.5 3434.1,1851.5 3460.4,1851.6C3477.8,1851.6 3490.111,1864.747 3490.211,1882.247L3490.904,1897.504C3494.104,1897.504 3505.866,1897.515 3505.866,1897.515C3505.866,1897.515 3527.511,1897.342 3522.6,1914.9C3518.6,1929.2 3514.4,1943.5 3510.4,1957.7C3504.5,1978.2 3498.6,1998.7 3492.9,2019.3C3489.6,2031.1 3482.6,2039.4 3471.4,2044C3468.2,2045.3 3464.4,2045.7 3460.8,2045.7ZM3505.846,1899.712C3504.115,1899.703 3287.641,1900.129 3287.641,1900.129C3266.867,1899.718 3259.869,1901.255 3256.369,1913.555C3246.969,1946.555 3234.223,1989.652 3225.037,2022.626C3223.065,2029.705 3231.054,2043.468 3249.225,2043.468C3249.225,2043.468 3460.744,2043.586 3461.949,2043.573C3470.148,2043.484 3485.583,2037.971 3490.852,2018.841C3492.508,2012.831 3518.141,1920.971 3520.641,1912.871C3521.741,1909.071 3520.878,1899.796 3505.846,1899.712ZM3223.171,2020.856C3223.071,2022.056 3248.6,1932.7 3254.1,1913.1C3258.8,1896.4 3270.275,1897.98 3287.675,1897.98C3347.575,1897.98 3488.39,1898.361 3488.389,1897.535C3488.388,1894.662 3488.169,1890.572 3487.616,1882.414C3486.671,1868.477 3478.289,1853.432 3460.534,1853.446C3431.933,1853.469 3410.061,1853.651 3381.461,1853.751C3375.549,1853.772 3373.678,1851.316 3371.978,1848.516C3366.378,1839.116 3364.658,1836.902 3359.158,1827.402C3354.435,1819.245 3345.454,1813.554 3335.411,1813.643C3324.211,1813.743 3250.2,1813.54 3250.2,1813.54C3240.343,1813.849 3223.544,1820.115 3222.946,1841.373C3221.748,1883.959 3223.171,1978.256 3223.171,2020.856Z" style="fill:rgb(102,102,102);fill-rule:nonzero;"/>
        </g>
    </g>
</svg>
