<?xml version="1.0" encoding="utf-8"?>
<!-- Generator: Adobe Illustrator 24.1.2, SVG Export Plug-In . SVG Version: 6.00 Build 0)  -->
<svg version="1.1" id="Livello_1" xmlns="http://www.w3.org/2000/svg" xmlns:xlink="http://www.w3.org/1999/xlink" x="0px" y="0px"
	 viewBox="0 0 3061.4 3061.4" style="enable-background:new 0 0 3061.4 3061.4;" xml:space="preserve">
<style type="text/css">
	.st0{fill:#F5F5F5;}
	.st1{opacity:0.8;}
	.st2{fill:url(#SVGID_1_);}
	.st3{fill:url(#SVGID_2_);stroke:#666666;stroke-miterlimit:10;}
	.st4{fill:none;stroke:#666666;stroke-miterlimit:10;}
</style>
<g>
	<path class="st0" d="M-79.8,1528.2c0-530.4,0-1060.9,0-1591.2c0-14.7,0-14.7,14.9-14.7c1060.9,0,2121.6,0,3182.5,0
		c14.5,0,14.5,0,14.5,14.2c0,1061.2,0,2122.2,0,3183.4c0,14.3,0,14.3-14.5,14.3c-1060.9,0-2121.6,0-3182.5,0c-14.9,0-15,0-15-14.7
		C-79.8,2589.1-79.8,2058.7-79.8,1528.2z M1543.2,2656.1c0,0.5,0,1,0,1.5c182.2,0,364.4,0.2,546.7-0.1c173.1-0.2,346-0.6,519-1.5
		c54-0.4,104.9-13.9,148.6-46.6c71.5-53.5,105.6-127.8,109.4-215.1c2.8-65.4,0.4-130.9,0.2-196.4c-0.2-96.7-0.9-193.3-0.7-290
		c0.2-229.6,0.7-459.1,1.1-688.8c0.1-109.4,0.5-218.7-0.4-328.1c-0.2-27.5-2.6-55.4-7.6-82.4c-23.7-127.8-121.4-210.9-247.6-211.3
		c-199.1-0.7-398.1-1.4-597.3-1.7c-135.8-0.2-271.5,0.2-407.5,0.4c-64.8,0-129.8,0.7-194.5-0.7c-40.6-1-80.6-7.6-118.1-24.2
		c-12.7-5.6-24.4-13.6-35.5-21.7c-9.3-6.9-16.8-16-25.3-23.8c-4.4-4.1-9.5-7.4-14.3-11.1c-50.9-38.2-103.3-74.4-162.1-99.7
		c-25.9-11.1-52.4-19.6-80.9-19.5c-177.1,0-354.3-0.4-531.3,0.4c-48.6,0.2-94.6,13.4-135.2,40.7c-78.7,53-114,131.5-116.6,222.7
		c-3.9,142.4-2.3,284.8-2.7,427.3c-0.2,71.9,0.4,143.7,0.4,215.6c-0.1,135.8-0.4,271.5-0.5,407.5c0,118.7,0,237.2,0.4,355.9
		c0.4,108.1,0.4,216.2,1.7,324.3c0.7,60.8,17.3,117.2,57.5,164.2c59.6,69.8,138.2,101.9,227.7,102.3
		C832.8,2656.9,1188.1,2656.1,1543.2,2656.1z"/>
</g>
<g>
	<g class="st1">
		<linearGradient id="SVGID_1_" gradientUnits="userSpaceOnUse" x1="1534.0792" y1="356.8124" x2="1534.0792" y2="1357.653">
			<stop  offset="0" style="stop-color:#020202;stop-opacity:0.2"/>
			<stop  offset="1" style="stop-color:#000000;stop-opacity:0.8"/>
		</linearGradient>
		<path class="st2" d="M2872.4,902.8c1-101.9-25.1-181.8-79.7-234.9c-75.8-75.5-186.9-69.1-186.9-69.1c-55-0.2-918.4-3.3-1130-0.6
			c-158.1,2.2-206-39.8-218-53.1l-18.1-17.5c-163.4-132.4-241.2-134.6-266.7-132.7h-0.6H434.4l-4.2,0.1
			C239.8,411.8,193.3,585.5,195.3,675v0.1v0.1c0,4.1,0.8,430.4,0.8,430.4c5.4-43,13.8-240.4,288.5-241.8c86.8,0.9,358.7,0,681.1,0
			c599.4,0,1375.2-0.2,1457.2-0.5c22.5-2.4,93.8,3.8,162.1,65.2c37.7,34,78.8,106,87.8,237.3C2873,1166,2872,935.9,2872.4,902.8z"/>
	</g>
	<g>
		<linearGradient id="SVGID_2_" gradientUnits="userSpaceOnUse" x1="1538.6932" y1="859.9485" x2="1533.2933" y2="2658.1238">
			<stop  offset="1.788139e-07" style="stop-color:#020202;stop-opacity:0"/>
			<stop  offset="1" style="stop-color:#000000;stop-opacity:0.3"/>
		</linearGradient>
		<path class="st3" d="M1542.5,863.5c350.4,0,700.8,0.2,1051.3-0.3c31.5,0,62.7-1.3,93.3,7.8c74.5,22.3,122.8,72.5,152.8,141.9
			c25,57.9,33.2,119.2,34.3,181.6c0.7,41.9-1.9,83.8-1.9,125.7c0.3,354.7,1.1,709.4,0.9,1064c0,74.6-26.8,140.4-78,195.2
			c-53.2,57.1-121.9,78.2-197.8,78.2c-556.4,0.3-1112.7,0.2-1669.1,0.1c-144.5,0-288.9,0-433.4-1.2c-69.5-0.6-133.5-21.1-189.6-62.3
			c-71.7-52.7-103.2-126.2-103.9-213.1c-1.3-167.7-1.6-335.5-1.7-503.2c-0.2-186.5,0.4-373,0.4-559.5c0-70-0.4-140-1.2-210
			c-1.3-119.7,74.9-212.7,196.2-235.9c31.1-5.9,63.2-8.8,94.8-8.8C840.8,863.3,1191.7,863.5,1542.5,863.5
			C1542.5,863.5,1542.5,863.5,1542.5,863.5z"/>
	</g>
	<path class="st4" d="M1549.3,2653.8c0,0.5,0,1,0,1.5c182.2,0,364.4,0.2,546.7-0.1c173.1-0.2,346-0.6,519-1.5
		c54-0.4,104.9-13.9,148.6-46.6c71.5-53.5,105.6-127.8,109.4-215.1c2.8-65.4,0.4-130.9,0.2-196.4c-0.2-96.7-0.9-193.3-0.7-290
		c0.2-229.6,0.7-459.1,1.1-688.8c0.1-109.4,0.5-218.7-0.4-328.1c-0.2-27.5-2.6-55.4-7.6-82.4C2841.9,678.5,2744.2,595.4,2618,595
		c-199.1-0.7-398.1-1.4-597.3-1.7c-135.8-0.2-271.5,0.2-407.5,0.4c-64.8,0-129.8,0.7-194.5-0.7c-40.6-1-80.6-7.6-118.1-24.2
		c-12.7-5.6-24.4-13.6-35.5-21.7c-9.3-6.9-16.8-16-25.3-23.8c-4.4-4.1-9.5-7.4-14.3-11.1c-50.9-38.2-103.3-74.4-162.1-99.7
		c-25.9-11.1-52.4-19.6-80.9-19.5c-177.1,0-354.3-0.4-531.3,0.4c-48.6,0.2-94.6,13.4-135.2,40.7c-78.7,53-114,131.5-116.6,222.7
		c-3.9,142.4-2.3,284.8-2.7,427.3c-0.2,71.9,0.4,143.7,0.4,215.6c-0.1,135.8-0.4,271.5-0.5,407.5c0,118.7,0,237.2,0.4,355.9
		c0.4,108.1,0.4,216.2,1.7,324.3c0.7,60.8,17.3,117.2,57.5,164.2c59.6,69.8,138.2,101.9,227.7,102.3
		C838.9,2654.6,1194.2,2653.8,1549.3,2653.8z"/>
</g>
</svg>
