<?xml version="1.0" encoding="utf-8"?>
<!-- Generator: Adobe Illustrator 24.1.2, SVG Export Plug-In . SVG Version: 6.00 Build 0)  -->
<svg version="1.1" id="Livello_1" xmlns="http://www.w3.org/2000/svg" xmlns:xlink="http://www.w3.org/1999/xlink" x="0px" y="0px"
	 viewBox="0 0 3061.4 3061.4" style="enable-background:new 0 0 3061.4 3061.4;" xml:space="preserve">
<style type="text/css">
	.st0{fill:none;}
	.st1{fill:#999999;}
</style>
<rect class="st0" width="3061.4" height="3061.4"/>
<g>
	<path class="st1" d="M474.7,589.1c0,671.8,0,1341.4,0,2012.4c670.2,0,1340.2,0,2013,0c0-10.1,0-20.4,0-30.6
		c0-419.7,0-839.4-0.2-1259.1c0-21,4.4-39.4,21.8-52.5c18.2-13.7,38.2-16.4,59.3-7.3c21.9,9.5,32.5,27.2,34.6,50.5
		c0.5,5.8,0.1,11.7,0.1,17.5c0,443,0,886,0,1329c0,50.1-21.1,71.3-71.3,71.3c-701.8,0-1403.6,0-2105.4,0
		c-47.3,0-70.1-22.7-70.1-69.4c0-701.2,0-1402.5,0-2103.7c0-8.1,0.3-16.4,1.6-24.4c4.7-28.8,25.8-47.6,54.9-49.4
		c5.2-0.3,10.5-0.1,15.7-0.1c445.3,0,890.7,0,1336,0c45.1,0,73.2,32.7,63,73.3c-6,23.9-26.9,41.1-51.7,42.3c-7,0.3-14,0.1-21,0.1
		c-419.1,0-838.2,0-1257.3,0C490.5,589.1,483.1,589.1,474.7,589.1z"/>
	<path class="st1" d="M2601,392.3c-10.7,0-17,0-23.2,0c-162.6,0-325.2,0-487.8,0c-37.9,0-61.4-17.3-66.9-48.4
		c-5.7-32.2,14.2-61.2,46.3-67c7.4-1.3,15-1.8,22.6-1.8c212.1-0.1,424.3-0.1,636.4,0c10.4,0,21.2,0.5,31.1,3.1
		c28,7.3,42.4,30.6,42.4,66.3c0,124.7,0,249.4,0,374.1c0,89.2-0.1,178.3,0,267.5c0,24.6-5.6,46.2-28.2,60
		c-33.5,20.5-76.8,3.4-86.1-34.7c-2.4-10-2.9-20.8-2.9-31.2c-0.2-160.8-0.1-321.7-0.2-482.5c0-5.8,0-11.6,0-22
		c-7.6,7-12.5,11.2-17.1,15.8c-280.2,280.1-560.4,560.3-840.5,840.5c-27,27-63.2,28.7-87,4.1c-23.5-24.3-21.6-59.6,4.5-85.8
		c281.4-281.4,562.8-562.8,844.2-844.2C2591.8,402.9,2594.7,399.3,2601,392.3z"/>
</g>
</svg>
